<?xml version="1.0" encoding="UTF-8"?>
<svg id="Layer_1" data-name="Layer 1" xmlns="http://www.w3.org/2000/svg" viewBox="0 0 6165.57 2774.76">
  <g>
    <polygon points="1767.68 1729.46 1696.68 1729.46 1696.68 1668.94 1678.08 1668.94 1678.08 1810.16 1696.68 1810.16 1696.68 1745.28 1767.68 1745.28 1767.68 1810.16 1786.28 1810.16 1786.28 1668.94 1767.68 1668.94 1767.68 1729.46"/>
    <path d="m1904.96,1668.94l-52.81,141.23h18.39l13.43-36.99h63.11l13.26,36.99h20.18l-52.62-141.23h-22.94Zm-15.39,88.81l26.15-72.01,25.82,72.01h-51.97Z"/>
    <rect x="2046.39" y="1668.94" width="18.59" height="141.23"/>
    <path d="m2240.04,1753.79c-1.72-2.63-4.02-4.74-6.92-6.33-1.94-1.06-4.43-2.07-7.19-3.07,3.97-1.31,7.66-3.12,10.85-5.83,4.02-3.43,7.22-7.75,9.6-12.96,2.37-5.21,3.56-11.04,3.56-17.51,0-8.57-1.75-15.75-5.24-21.56s-8.41-10.18-14.73-13.15-13.65-4.45-21.96-4.45h-63.3v141.23h18.59v-57.96h43.32c4.88,0,8.97,1.26,12.27,3.76,3.3,2.5,5.67,6.46,7.12,11.87l11.87,42.33h20.17l-13.45-45.7c-1.32-4.48-2.84-8.04-4.55-10.68Zm-21.66-20.57c-3.89,2.24-8.6,3.36-14.14,3.36h-40.94v-52.02h41.14c8.17,0,14.57,2.31,19.19,6.92,4.61,4.62,6.92,10.75,6.92,18.4,0,5.28-1.06,9.92-3.17,13.95-2.11,4.02-5.11,7.15-9,9.4Z"/>
    <path d="m2523.48,1771.3c2.37-4.55,4.52-9.43,6.43-14.64,1.91-5.21,3.26-10.65,4.05-16.32h-18.2c-.66,3.96-1.58,8.11-2.77,12.46s-2.64,8.48-4.35,12.36c-.14.32-.32.59-.46.9l-28.69-33.08c1.97-1.17,3.92-2.25,5.91-3.53,3.89-2.5,7.45-5.37,10.68-8.6,3.23-3.23,5.83-6.89,7.81-10.98,1.98-4.09,2.97-8.77,2.97-14.05s-1.26-10.08-3.76-14.44c-2.51-4.35-6.2-7.84-11.08-10.48-4.88-2.64-10.95-3.96-18.2-3.96s-13.58,1.31-18.99,3.96c-5.41,2.63-9.59,6.23-12.56,10.78-2.97,4.55-4.45,9.79-4.45,15.72,0,6.72,1.65,12.66,4.95,17.8,3.3,5.15,6.79,9.83,10.49,14.05l1.1,1.28c-5.2,2.61-9.69,5.32-13.47,8.12-5.08,3.76-9.1,7.61-12.07,11.57s-5.05,7.95-6.23,11.97c-1.19,4.03-1.78,8.14-1.78,12.36,0,6.33,1.25,11.87,3.76,16.61,2.5,4.75,5.86,8.68,10.09,11.78,4.22,3.1,9.03,5.41,14.44,6.92,5.4,1.51,11.01,2.27,16.81,2.27,8.17,0,15.19-1.06,21.06-3.17,5.87-2.1,10.94-5.04,15.23-8.8,2.32-2.03,4.46-4.28,6.49-6.67l14.38,16.66h23.34l-27.19-31.36c1.44-2.37,2.86-4.85,4.25-7.51Zm-65.08-83.18c1.58-2.37,3.66-4.22,6.23-5.54,2.57-1.31,5.44-1.98,8.6-1.98,4.48,0,8.24,1.35,11.27,4.06,3.03,2.7,4.55,6.62,4.55,11.77,0,4.48-1.12,8.58-3.36,12.26-2.24,3.69-4.95,6.89-8.11,9.6-2.31,1.97-4.52,3.49-6.69,4.8l-2.01-2.32c-2.11-2.5-4.16-5.05-6.13-7.62s-3.59-5.21-4.84-7.91c-1.26-2.7-1.88-5.57-1.88-8.6,0-3.3.79-6.13,2.37-8.51Zm33.73,100.08c-3.36,3.04-7.06,5.35-11.08,6.92-4.02,1.58-8.67,2.38-13.94,2.38-4.88,0-9.4-.99-13.55-2.97-4.16-1.98-7.45-4.85-9.89-8.61-2.44-3.76-3.66-8.28-3.66-13.55,0-4.22.99-8.34,2.97-12.36,1.98-4.02,4.98-7.81,9-11.37,3.08-2.73,7.06-5.2,11.5-7.54l34.9,40.44c-2.02,2.44-4.09,4.72-6.25,6.67Z"/>
    <path d="m2802.48,1740.34c-5.47-3.29-12.23-5.86-20.27-7.71l-30.26-6.92c-5.41-1.32-9.86-2.94-13.35-4.84-3.5-1.92-6.1-4.26-7.82-7.02-1.72-2.77-2.57-6-2.57-9.7,0-4.61,1.35-8.6,4.05-11.96,2.7-3.37,6.49-6,11.37-7.91,4.88-1.92,10.55-2.87,17.01-2.87s12.49,1.06,17.31,3.17,8.7,4.98,11.67,8.61c2.97,3.62,4.91,7.88,5.84,12.76h18.79c-.27-5.41-1.65-10.49-4.16-15.23-2.5-4.75-6-8.97-10.48-12.66-4.49-3.69-9.92-6.56-16.32-8.6-6.4-2.05-13.75-3.07-22.06-3.07-7.78,0-14.87.92-21.26,2.77-6.4,1.85-11.94,4.52-16.62,8.01-4.68,3.49-8.28,7.62-10.78,12.36-2.51,4.74-3.76,10.02-3.76,15.82,0,6.6,1.19,12.1,3.56,16.52,2.37,4.42,5.47,8,9.3,10.78,3.82,2.77,8.04,4.95,12.66,6.53,4.61,1.58,9.1,2.9,13.45,3.96l29.28,6.52c5.14,1.06,9.4,2.61,12.76,4.65,3.36,2.05,5.87,4.55,7.52,7.52,1.65,2.97,2.47,6.36,2.47,10.18,0,5.8-1.58,10.59-4.75,14.34-3.16,3.76-7.51,6.56-13.05,8.41s-11.87,2.77-18.99,2.77c-5.54,0-10.58-.66-15.13-1.98-4.55-1.32-8.54-3.23-11.97-5.74-3.43-2.5-6.23-5.5-8.41-9-2.18-3.49-3.66-7.35-4.45-11.57h-18.99c.26,5.67,1.75,11.11,4.45,16.32,2.7,5.21,6.53,9.86,11.47,13.95,4.95,4.09,11.01,7.32,18.2,9.69,7.19,2.37,15.46,3.56,24.83,3.56,8.7,0,16.48-.96,23.34-2.87,6.86-1.92,12.73-4.71,17.61-8.41,4.88-3.69,8.6-8.14,11.18-13.35s3.86-11.11,3.86-17.71-1.38-12.76-4.15-17.7-6.89-9.06-12.36-12.36Z"/>
    <path d="m2962.99,1738.56c-1.85-2.24-4.09-4.19-6.72-5.83-2.64-1.65-5.93-2.74-9.89-3.27l56.37-60.52h-23.54l-69.43,76.2v-76.2h-18.59v141.23h18.59v-41.61l18-19.51c3.56-3.82,7.28-5.61,11.18-5.35,3.89.27,7.15,2.51,9.79,6.73l38.57,59.73h22.35l-41.54-64.29c-1.58-2.63-3.3-5.08-5.15-7.32Z"/>
    <rect x="3076.33" y="1668.94" width="18.6" height="141.23"/>
    <polygon points="3268.99 1784.54 3197.78 1668.94 3174.65 1668.94 3174.65 1810.16 3192.05 1810.16 3192.05 1694.42 3263.46 1810.16 3286.4 1810.16 3286.4 1668.94 3268.99 1668.94 3268.99 1784.54"/>
    <path d="m3553.04,1783.26c-3.57,4.36-8.05,7.72-13.46,10.09s-11.47,3.56-18.19,3.56c-8.71,0-16.4-2.4-23.05-7.22-6.66-4.81-11.87-11.54-15.63-20.17-3.76-8.63-5.63-18.62-5.63-29.96,0-5.8.46-11.24,1.38-16.32.93-5.08,2.3-9.76,4.16-14.05,1.84-4.28,4.05-8.11,6.63-11.47,2.57-3.36,5.5-6.2,8.79-8.5,3.3-2.31,6.89-4.09,10.79-5.35,3.89-1.25,8.07-1.88,12.56-1.88,6.32,0,12.02,1.16,17.11,3.46,5.07,2.31,9.36,5.57,12.86,9.79,3.49,4.23,5.96,9.3,7.42,15.24h19.38c-.92-8.84-3.93-16.55-8.99-23.15-5.08-6.59-11.71-11.73-19.88-15.42-8.18-3.69-17.47-5.54-27.89-5.54-6.34,0-12.27.79-17.8,2.37-5.55,1.58-10.69,3.89-15.44,6.92-4.74,3.04-8.99,6.69-12.75,10.98-3.76,4.29-6.96,9.16-9.6,14.63-2.64,5.48-4.65,11.41-6.03,17.8-1.38,6.4-2.08,13.22-2.08,20.48,0,14.63,2.67,27.43,8.01,38.37,5.34,10.95,12.79,19.49,22.35,25.61,9.56,6.13,20.67,9.2,33.33,9.2,10.54,0,19.87-1.75,27.99-5.25s14.73-8.6,19.87-15.33c5.15-6.72,8.58-14.84,10.29-24.32h-19.39c-1.18,5.93-3.56,11.07-7.12,15.42Z"/>
    <polygon points="3671.52 1668.94 3652.93 1668.94 3652.93 1810.16 3739.56 1810.16 3739.56 1794.34 3671.52 1794.34 3671.52 1668.94"/>
    <rect x="3807.01" y="1668.94" width="18.59" height="141.23"/>
    <polygon points="3999.67 1784.55 3928.46 1668.94 3905.31 1668.94 3905.31 1810.16 3922.72 1810.16 3922.72 1694.41 3994.13 1810.16 4017.07 1810.16 4017.07 1668.94 3999.67 1668.94 3999.67 1784.55"/>
    <rect x="4096.79" y="1668.94" width="18.6" height="141.23"/>
    <path d="m4291.23,1767.84c-1.19,5.93-3.57,11.07-7.12,15.42-3.56,4.36-8.05,7.72-13.45,10.09-5.41,2.37-11.47,3.56-18.2,3.56-8.7,0-16.39-2.4-23.04-7.22-6.66-4.81-11.87-11.54-15.63-20.17-3.76-8.63-5.63-18.62-5.63-29.96,0-5.8.46-11.24,1.38-16.32.93-5.08,2.31-9.76,4.16-14.05,1.85-4.28,4.06-8.11,6.63-11.47,2.57-3.36,5.5-6.2,8.8-8.5,3.3-2.31,6.88-4.09,10.78-5.35,3.89-1.25,8.08-1.88,12.56-1.88,6.33,0,12.03,1.16,17.11,3.46,5.08,2.31,9.36,5.57,12.86,9.79,3.49,4.23,5.96,9.3,7.42,15.24h19.39c-.92-8.84-3.93-16.55-9-23.15-5.08-6.59-11.7-11.73-19.87-15.42-8.18-3.69-17.48-5.54-27.89-5.54-6.34,0-12.27.79-17.8,2.37-5.54,1.58-10.68,3.89-15.43,6.92-4.75,3.04-9,6.69-12.76,10.98s-6.95,9.16-9.6,14.63c-2.64,5.48-4.65,11.41-6.03,17.8-1.39,6.4-2.09,13.22-2.09,20.48,0,14.63,2.67,27.43,8.02,38.37,5.33,10.95,12.78,19.49,22.35,25.61,9.57,6.13,20.68,9.2,33.33,9.2,10.55,0,19.87-1.75,27.99-5.25,8.11-3.49,14.74-8.6,19.88-15.33,5.14-6.72,8.57-14.84,10.28-24.32h-19.38Z"/>
  </g>
  <g id="Group_1" data-name="Group 1">
    <path id="Path_1" data-name="Path 1" d="m5426.8,894.62c-29.72,39.11-57.85,79.33-84.4,120.66-41.59,64.73-79.11,131.98-112.35,201.36-15.22,31.74-29.5,63.89-42.84,96.42-4.75,11.56-9.37,23.17-13.88,34.81-36.37-14.06-70.28-33.78-100.48-58.45,56.83-81.71,137.8-295.19-1.19-391.25-42.92-23.21-94.75-22.75-137.25,1.21-140.16,106.77-67.93,303.83.85,394.25-64.09,64.75-163.33,105.41-265.89,104.82-123.82-.73-247.69-61.59-258.11-212.84,5.6-145.54,83.4-190.33,137.39-208.2,75.06-21,208.98,44.77,182.77,132.34-8.93,20.16-26.56,35.16-47.9,40.74-22.49,5.54-44.84-8.5-82.38-33.8-28.48-20.7-59.37-37.86-91.99-51.1l.92.67c-19.41,29.23-31.79,62.56-36.17,97.37,23.98,10.42,46.73,23.47,67.83,38.92,92.57,80.24,235.38,69.39,288-55.48,76.67-245.54-297.45-375.69-449.34-162.15-69.37,97.55-93.68,247.06-18.46,361.65,63.56,104.3,179.53,151.63,291.65,156.61,130.63,4.35,257.62-43.52,352.88-133.02,39.43,32.76,83.7,59.2,131.24,78.38-2.11,6.56-4.18,13.13-6.21,19.71-70.57,228.16-96.18,467.84-75.41,705.76l103.38-8.81c-19.6-224.58,4.58-450.83,71.21-666.2,16.48-53.37,35.59-105.91,57.33-157.63,14.13-33.7,29.33-66.96,45.6-99.78,61.48-124.08,137.3-240.53,225.89-346.95l-132.69-.04Zm-425.81,309.52c-24.7-39.82-43.58-80.18-41.85-138.2,1.21-22.82,7.73-82.83,44.53-80.77,30.79-.93,33.96,33.01,39.56,62.42,11.35,67.07-22.28,117.71-42.21,156.56"/>
    <path id="Path_2" data-name="Path 2" d="m1340.88,1031.6c-12.71,47.31-26.39,94.18-41.02,140.6-14.64,46.42-29.29,90.55-43.94,132.37-14.65,41.82-28.53,77.31-41.63,106.47-15.41-38.42-30.63-79.53-45.65-123.35-15.03-43.82-29.22-88.18-42.59-133.07-13.39-44.91-25.63-89.07-36.7-132.46-11.08-43.39-20.07-84.27-26.96-122.64h-64.55c-9.11,38.35-19.4,79.23-30.86,122.64-11.46,43.41-23.68,87.4-36.65,131.97-13,44.57-26.88,88.78-41.64,132.64-14.76,43.85-29.51,84.9-44.23,123.14-13.1-29.2-27.16-64.56-42.18-106.07-15.02-41.51-29.85-85.5-44.5-131.96-14.65-46.44-28.35-93.28-41.08-140.5s-23.34-91.19-31.81-131.89h-79.5c27.54,116.8,57.63,223.59,90.26,320.36,31.34,93.53,67.39,185.41,108.02,275.29h72c11.47-26.73,23.55-56.8,36.25-90.2,12.7-33.4,25.8-69.11,39.28-107.13,13.47-37.98,26.51-77.94,39.14-119.89,12.63-41.95,24.68-84.83,36.15-128.64,11.5,43.74,23.59,86.53,36.25,128.36,12.66,41.83,25.76,81.73,39.3,119.69,13.54,37.98,26.7,73.66,39.48,107.06,12.78,33.39,24.99,63.65,36.62,90.77h69.44c39.32-86.72,75.37-178.43,108.14-275.13,32.78-96.7,63.02-203.55,90.72-320.54h-73.79c-8.48,40.77-19.07,84.82-31.78,132.13"/>
    <path id="Path_3" data-name="Path 3" d="m1739.09,885.67c-33-.02-65.68,6.43-96.2,18.99-31.61,13.03-59.95,32.9-82.97,58.18-25.58,28.43-45.52,61.47-58.75,97.36-15.82,43.74-23.44,90.02-22.47,136.52-.41,42.21,5.01,84.28,16.12,125.01,9.83,36.25,27.53,69.89,51.85,98.52,24.83,28.38,56.02,50.48,91.03,64.51,42.6,16.39,88.01,24.22,133.64,23.04,35.18.6,70.27-3.66,104.28-12.66,20.86-5.19,41.13-12.53,60.48-21.9l-13.82-64.51c-16.81,7.71-34.14,14.25-51.85,19.58-31.51,8.68-64.15,12.57-96.81,11.54-73.75,0-127.51-19.59-161.3-58.76-33.78-39.18-51.84-95.24-54.17-168.2h418.23c.79-5.38,1.33-11.12,1.73-17.28.4-6.16.57-12.28.57-18.44,0-99.09-21.69-172.45-65.08-220.07-43.38-47.62-101.57-71.43-174.55-71.43m-178.58,263.85c1.42-25.6,6.66-50.84,15.56-74.89,8.35-23.01,20.84-44.29,36.86-62.8,15.48-17.84,34.26-32.51,55.31-43.22,22.37-11.04,47.06-16.56,72-16.12,50.71,0,89.88,17.28,117.51,51.85,27.63,34.57,42.23,82.96,43.79,145.18h-341.02Z"/>
    <path id="Path_4" data-name="Path 4" d="m2383.12,1226.12c-16.99-13.96-35.79-25.56-55.88-34.49-21.14-9.56-43.22-18.93-66.25-28.1-22.29-9.18-42.07-17.6-59.34-25.24-15.46-6.6-30.15-14.89-43.78-24.73-11.21-8.04-20.46-18.5-27.08-30.6-6.46-12.88-9.63-27.16-9.22-41.57-.47-14.36,3.13-28.57,10.37-40.98,6.98-11.22,16.44-20.7,27.65-27.69,12.23-7.61,25.67-13.07,39.74-16.16,15.69-3.54,31.73-5.28,47.81-5.2,42.23,0,74.3,3.84,96.2,11.52,15.89,5.27,31.48,11.43,46.68,18.44l17.28-66.83c-18.02-7.84-36.71-14.01-55.85-18.44-33.04-7.63-66.91-11.11-100.82-10.37-63.76,0-113.87,14.98-150.33,44.93-35.75,28.36-56.03,71.91-54.73,117.52-.67,22.31,4.07,44.44,13.83,64.52,9.08,17.51,21.62,32.99,36.87,45.51,16.25,13.24,34.05,24.46,53.01,33.41,19.97,9.61,41.09,19.02,63.37,28.23,27.65,11.52,50.89,21.51,69.71,29.96,16.21,6.92,31.49,15.82,45.51,26.5,10.69,8.17,19.2,18.86,24.77,31.11,5.3,13.17,7.84,27.28,7.48,41.48,0,33.81-14.02,57.81-42.05,72-28.04,14.19-63.59,21.3-106.67,21.32-21.02.22-42.02-1.32-62.79-4.6-15.8-2.53-31.4-6.18-46.68-10.94-10.57-3.28-20.95-7.13-31.1-11.52-5.15-2.16-10.16-4.66-14.98-7.48l-19.58,67.97c17.99,7.89,36.46,14.63,55.31,20.17,27.65,8.82,67.59,13.24,119.82,13.25,69.89,0,125.01-13.83,165.36-41.48,40.36-27.65,60.52-68.36,60.49-122.12.86-24.49-4.29-48.81-14.98-70.85-9.76-18.55-23.07-34.99-39.17-48.41"/>
    <path id="Path_5" data-name="Path 5" d="m2795.6,1428.9c-24.5,8.12-50.25,11.82-76.04,10.94-17.07.16-34.09-1.77-50.69-5.76-15.05-3.65-28.68-11.66-39.17-23.04-12.09-14.08-20.59-30.88-24.77-48.97-6.42-26.97-9.32-54.66-8.64-82.38v-316.83h164.26v-63.37h-164.26v-188.95l-74.89,13.82v548.42c-.48,34.79,2.61,69.54,9.22,103.7,4.93,26.45,15.75,51.46,31.65,73.16,15.45,19.94,36.22,35.11,59.91,43.78,29.79,10.39,61.21,15.27,92.75,14.4,29.71.27,59.27-4.21,87.56-13.25,19.65-5.71,38.59-13.64,56.45-23.62l-18.43-62.21c-14.45,7.83-29.47,14.57-44.93,20.16"/>
    <path id="Path_6" data-name="Path 6" d="m3402.86,894.31h-114.21l-.32,1.32c-9.16,37.4-20.2,77.88-32.81,120.32-12.58,42.31-26.11,84.94-40.3,126.67-14.11,41.53-28.63,82.4-43.19,121.5-13.97,37.49-27.37,71.45-39.85,101.01-12.52-29.6-25.91-63.56-39.85-101.01-14.57-39.09-29.1-79.97-43.19-121.5-14.04-41.3-27.6-83.92-40.3-126.67-12.62-42.44-23.66-82.92-32.81-120.32l-.32-1.32h-118.82l.58,2.18c29.11,109.49,64.33,217.26,105.48,322.81,40.19,102.59,79.55,195.65,116.98,276.61l.46,1h98.96l.47-1c37.54-81.22,76.9-174.29,116.98-276.61,41.16-105.55,76.38-213.32,105.48-322.81l.61-2.18Z"/>
    <path id="Path_7" data-name="Path 7" d="m3795.36,943.85c-19.79-21.55-44.55-37.93-72.12-47.71-35.21-12.05-72.28-17.74-109.49-16.81-35.24-.19-70.42,2.72-105.14,8.7-23.75,3.47-47.07,9.49-69.52,17.98l-1.19.54,13.17,92.21,2.06-.85c19.14-6.98,38.89-12.15,58.99-15.44,30.52-5.3,61.46-7.79,92.43-7.45,22.82-.84,45.56,3.23,66.68,11.94,15.85,7.04,29.69,17.94,40.24,31.71,9.94,13.54,16.91,29.03,20.44,45.45,3.79,17.09,5.7,34.54,5.71,52.04v27.76c-3.17-.73-7.83-1.69-14.07-2.96-7.75-1.54-16.87-3.28-27.09-5.19-10.5-1.94-21.59-3.5-32.97-4.64-11.54-1.14-22.83-1.73-33.59-1.73-32.67-.12-65.25,3.38-97.15,10.41-28.73,6.1-56.19,17.09-81.2,32.49-23,14.49-42.01,34.5-55.31,58.21-14.14,26.46-21.16,56.13-20.38,86.12-.8,30.72,5.14,61.23,17.41,89.41,10.89,23.88,27.74,44.55,48.94,60.01,22.42,15.75,47.67,26.99,74.37,33.11,30.72,7.18,62.18,10.67,93.73,10.41,23.58,0,47.85-.97,72.13-2.89,24.28-1.92,46.98-4.07,67.47-6.33,20.85-2.32,39.67-4.84,55.96-7.51,16.5-2.68,29.37-4.79,38.6-6.33l1.46-.25v-375.93c.29-31.45-3.61-62.79-11.59-93.21-7.16-27.1-20.49-52.18-38.96-73.27m-57.76,464.66c-15.59,3.24-31.42,5.25-47.33,5.99-19.46,1.14-42.11,1.71-67.29,1.71-41.74,0-75.17-7.48-99.34-22.21-23.93-14.57-36.06-41-36.06-78.59-.84-17.54,4.31-34.84,14.62-49.06,9.88-12.5,22.47-22.58,36.83-29.48,15.45-7.38,32-12.2,49.01-14.24,16.93-2.22,33.98-3.37,51.05-3.44,20.91-.23,41.8,1.11,62.51,4.01,12.34,1.49,24.44,4.57,35.98,9.17l.02,176.14Z"/>
    <path id="Path_8" data-name="Path 8" d="m4064.74,1406.5c-10.08-2.73-19.33-7.93-26.9-15.12-7.14-7.52-12.16-16.8-14.53-26.9-3.34-14.19-4.87-28.76-4.55-43.33v-722.11l-110.63,18.99v720.42c0,57.06,14.13,99.73,42,126.82,27.87,27.09,75.51,41.57,141.72,43.12h1.5l15.52-93.1-1.76-.25c-14.32-1.78-28.48-4.65-42.36-8.58"/>
    <path id="Path_9" data-name="Path 9" d="m4302.08,1406.5c-10.08-2.73-19.33-7.93-26.9-15.12-7.15-7.52-12.16-16.8-14.53-26.9-3.34-14.19-4.87-28.76-4.55-43.33v-722.11l-110.63,18.99v720.42c0,57.06,14.13,99.73,42,126.82,27.87,27.09,75.51,41.57,141.72,43.12h1.5l15.52-93.1-1.77-.25c-14.32-1.78-28.48-4.65-42.36-8.58"/>
  </g>
</svg>